<svg width="20" height="16" viewBox="0 0 20 16" fill="none" xmlns="http://www.w3.org/2000/svg">
<path d="M2.19741 0.134734C1.93757 0.161681 1.73914 0.262733 1.54229 0.471576C1.4226 0.597891 1.34544 0.714102 0.890321 1.44842C0.580085 1.94863 0.351739 2.33263 0.321817 2.40842C0.219455 2.66105 0.219455 2.64421 0.224179 4.27789C0.228904 5.73473 0.228904 5.75158 0.261975 5.81894C0.309219 5.91663 0.398983 5.97726 0.520242 5.99579C0.65725 6.01768 3.4919 6.01768 3.61316 5.99579C3.72969 5.97558 3.81631 5.91494 3.86198 5.82231L3.8982 5.75158L3.90764 4.32C3.91552 3.01136 3.91867 2.88 3.94387 2.78736C4.04623 2.42189 4.2541 2.14737 4.54387 1.9941C4.82261 1.84926 4.49505 1.86273 7.89032 1.85768L10.9061 1.85263L10.9344 1.81726C10.9927 1.73979 10.9848 1.72968 10.4462 1.14863C10.1612 0.843786 9.88717 0.559155 9.83363 0.517049C9.52497 0.26947 9.23993 0.159997 8.8352 0.133049C8.57221 0.116207 2.36434 0.116207 2.19741 0.134734Z" fill="#2FB16A"/>
<path d="M9.62234 2.40322C9.62234 2.42175 9.59872 2.44701 9.56722 2.46554C9.48533 2.51269 9.35777 2.66596 9.31368 2.77038C9.29163 2.8209 9.26643 2.91017 9.25856 2.96912C9.23809 3.12912 9.23966 12.6415 9.26171 12.7493C9.28218 12.8537 9.35147 12.943 9.44124 12.9868C9.4995 13.0154 9.55935 13.0188 10.1625 13.0188C10.7216 13.0188 10.8286 13.0154 10.879 12.9935C10.953 12.9599 11.0034 12.9093 11.0412 12.8302C11.0696 12.7695 11.0712 12.6988 11.0712 10.7283V8.69038H12.509C13.2979 8.69038 14.0349 8.68196 14.1436 8.67354C15.353 8.57922 16.3546 7.68827 16.6538 6.44196C16.7263 6.14217 16.7404 5.98385 16.7404 5.51733C16.7404 5.09796 16.7216 4.88406 16.6601 4.62806C16.416 3.59396 15.6696 2.7788 14.7011 2.48575C14.3515 2.37964 14.5137 2.38638 11.9578 2.37964C9.71525 2.37459 9.62234 2.37459 9.62234 2.40322ZM13.953 3.76406C14.4948 3.85164 14.9452 4.21038 15.183 4.7409C15.6491 5.78343 15.0664 6.99943 13.9956 7.21669C13.8901 7.23859 13.668 7.24196 12.6003 7.24196C11.2034 7.24196 11.2491 7.24533 11.1294 7.13922L11.0712 7.08869V5.49038V3.89206L11.1279 3.84659C11.1593 3.82133 11.2208 3.78596 11.2649 3.7708C11.3404 3.74217 11.4381 3.74048 12.5751 3.7388C13.5704 3.7388 13.8318 3.74385 13.953 3.76406Z" fill="#2FB16A"/>
<path d="M0.370248 6.39985C0.343476 6.40827 0.300957 6.43858 0.27576 6.46722L0.228516 6.51943L0.23009 7.0449C0.23009 7.5569 0.231665 7.57543 0.271035 7.73037C0.299382 7.84153 0.448988 8.21543 0.760799 8.95143C1.35607 10.3577 1.3293 10.2954 1.37812 10.3375C1.43167 10.383 1.53875 10.3864 1.63954 10.3493C1.78285 10.2937 2.10096 10.2382 2.31355 10.2281C3.34663 10.1826 4.30096 10.7485 4.82064 11.7152C4.98127 12.0133 5.08206 12.3131 5.14978 12.6904C5.18285 12.8706 5.19229 12.8992 5.23796 12.9481L5.28836 13.002H6.65686C8.00017 13.002 8.02537 13.002 8.07576 12.9683C8.1797 12.9009 8.1734 13.0575 8.1734 10.447C8.1734 8.07564 8.17025 7.92069 8.11828 7.70511C7.98442 7.15437 7.5545 6.65416 7.07103 6.48574C6.78914 6.38806 7.02064 6.39311 3.57497 6.38974C1.73718 6.38637 0.39702 6.39143 0.370248 6.39985Z" fill="#2FB16A"/>
<path d="M14.6024 8.95832C14.4276 9.02737 14.2875 9.184 14.2292 9.37769C14.193 9.49558 14.2024 9.728 14.2481 9.83579C14.2654 9.8779 14.6276 10.4556 15.0544 11.1208L15.8292 12.3284L15.7741 12.4766C15.7001 12.6737 15.6812 12.8101 15.689 13.0577C15.6953 13.2227 15.7048 13.2901 15.7394 13.3979C15.8072 13.6118 15.8985 13.7667 16.0481 13.9284C16.1977 14.0884 16.3426 14.1844 16.5442 14.2602C16.6623 14.304 16.6875 14.3057 16.93 14.3074C17.1741 14.3074 17.1977 14.304 17.3158 14.2602C17.519 14.1844 17.6623 14.0884 17.8119 13.9284C17.9615 13.7684 18.0513 13.6135 18.1221 13.3979C18.1631 13.2716 18.1646 13.2446 18.1662 12.9853C18.1662 12.7242 18.1631 12.699 18.1221 12.5726C18.0513 12.3554 17.9615 12.2021 17.8119 12.0421C17.5898 11.8046 17.33 11.6766 17.0402 11.6581L16.8906 11.6497L16.0875 10.395C15.6135 9.6539 15.2591 9.11664 15.2213 9.08295C15.1095 8.97853 15.0056 8.93643 14.8355 8.93137C14.7174 8.92632 14.6686 8.93306 14.6024 8.95832Z" fill="#2FB16A"/>
<path d="M16.5743 10.1894C16.4499 10.2096 16.3144 10.2416 16.3144 10.2517C16.3144 10.2585 16.8845 11.1528 16.905 11.1797C16.9066 11.1814 16.9774 11.1898 17.0641 11.1999C17.5979 11.2538 18.0515 11.557 18.327 12.0437C18.7318 12.7561 18.6278 13.6825 18.0751 14.2669C17.2483 15.1427 15.8767 14.8479 15.4184 13.6943C15.2499 13.2681 15.2404 12.7528 15.3963 12.3351L15.4341 12.2324L15.1396 11.7759C14.979 11.5233 14.8404 11.3178 14.8326 11.3178C14.8121 11.3178 14.6452 11.6159 14.5727 11.781C14.4924 11.9646 14.4058 12.2492 14.3664 12.4547C14.3223 12.6905 14.327 13.317 14.3743 13.5528C14.4263 13.8121 14.494 14.0126 14.6058 14.2568C14.7396 14.5448 14.8814 14.7536 15.1018 14.9894C15.5097 15.4256 15.9743 15.6783 16.5475 15.7743C16.8042 15.8164 17.2357 15.8012 17.4877 15.7406C18.5113 15.4896 19.2767 14.6374 19.4908 13.5157C19.5349 13.2799 19.5302 12.6534 19.483 12.4176C19.431 12.1583 19.3633 11.9578 19.2515 11.7136C19.1176 11.4256 18.9759 11.2168 18.7554 10.981C18.3507 10.5481 17.8877 10.2955 17.3223 10.1978C17.1648 10.1709 16.7207 10.1658 16.5743 10.1894Z" fill="#2FB16A"/>
<path d="M2.14346 10.6291C1.22378 10.7521 0.436373 11.4459 0.149759 12.3857C0.0631451 12.6737 0.0410979 12.8337 0.0410979 13.1874C0.0395231 13.563 0.0599955 13.7163 0.151334 14.0161C0.42535 14.9222 1.12614 15.5739 2.02378 15.7575C2.21905 15.7979 2.6474 15.7979 2.84267 15.7575C3.61118 15.6009 4.23637 15.0956 4.57968 14.3579C4.98283 13.4906 4.90252 12.4699 4.36551 11.6632C4.25055 11.4914 3.99385 11.2186 3.83165 11.0939C3.56078 10.8868 3.17811 10.7133 2.85842 10.6527C2.68677 10.619 2.30409 10.6072 2.14346 10.6291ZM2.71354 11.3432C3.08362 11.4123 3.35763 11.5622 3.63322 11.8451C3.86944 12.0893 4.03165 12.379 4.11984 12.7158C4.17023 12.9129 4.18913 13.2952 4.15763 13.5041C4.11826 13.7735 4.01118 14.0514 3.85685 14.2923C3.76393 14.4354 3.54031 14.6712 3.4033 14.7706C3.25685 14.875 3.03007 14.9845 2.85527 15.035C2.71826 15.0737 2.67259 15.0788 2.43322 15.0788C2.19543 15.0788 2.14818 15.0737 2.01275 15.035C1.27732 14.8262 0.757633 14.1693 0.694641 13.3744C0.614326 12.3824 1.24425 11.5066 2.15291 11.3432C2.32141 11.3129 2.55291 11.3129 2.71354 11.3432Z" fill="#2FB16A"/>
<path d="M2.14114 11.7373C1.60255 11.8653 1.20413 12.2897 1.07972 12.8674C0.999404 13.2396 1.05137 13.6202 1.22933 13.957C1.32381 14.1373 1.56791 14.3983 1.73641 14.4994C2.27184 14.8227 2.91909 14.7469 3.36161 14.3107C3.69389 13.984 3.85452 13.5276 3.80885 13.0459C3.76003 12.5255 3.47972 12.0926 3.04665 11.8653C2.82775 11.7507 2.71751 11.7221 2.47184 11.712C2.31751 11.7069 2.24665 11.712 2.14114 11.7373Z" fill="#2FB16A"/>
</svg>
